<svg xmlns="http://www.w3.org/2000/svg" viewBox="0 0 24 24" fill="none">
  <path
    d="M6.75 8.25C7.57843 8.25 8.25 7.57843 8.25 6.75C8.25 5.92157 7.57843 5.25 6.75 5.25C5.92157 5.25 5.25 5.92157 5.25 6.75C5.25 7.57843 5.92157 8.25 6.75 8.25Z"
    fill="#FFFFFF"
  />
  <path
    d="M5.5 9.75H8V18.5H5.5V9.75Z"
    fill="#FFFFFF"
  />
  <path
    d="M10 9.75H12.4V10.95H12.43C12.76 10.32 13.57 9.65 14.78 9.65C17.3 9.65 17.75 11.23 17.75 13.28V18.5H15.25V13.88C15.25 12.78 15.23 11.37 13.72 11.37C12.18 11.37 11.95 12.55 11.95 13.8V18.5H9.45V9.75H10Z"
    fill="#FFFFFF"
  />
  <rect x="3.5" y="3.5" width="17" height="17" rx="3.5" stroke="#FFFFFF" stroke-width="1.5" />
</svg>
